<?xml version="1.0" encoding="utf-8"?>
<!-- Generator: Adobe Illustrator 19.0.0, SVG Export Plug-In . SVG Version: 6.00 Build 0)  -->
<svg version="1.1" id="Layer_1" xmlns="http://www.w3.org/2000/svg" xmlns:xlink="http://www.w3.org/1999/xlink" x="0px" y="0px"
	 viewBox="0 0 96 96" style="enable-background:new 0 0 96 96;" xml:space="preserve">
<g id="XMLID_1_">
	<path id="XMLID_11_" d="M74.7,37.9L49,20.8c-0.6-0.4-1.4-0.4-2,0L21.3,37.9c-0.5,0.3-0.8,0.9-0.8,1.5v17.1c0,0.6,0.3,1.2,0.8,1.5
		L47,75.2c0.3,0.2,0.7,0.3,1,0.3c0.4,0,0.7-0.1,1-0.3l25.7-17.1c0.5-0.3,0.8-0.9,0.8-1.5V39.4C75.5,38.8,75.2,38.3,74.7,37.9
		L74.7,37.9z M48,54.3L38.5,48l9.5-6.4l9.5,6.4L48,54.3z M49.8,38.5V25.8l20.5,13.7l-9.5,6.4L49.8,38.5L49.8,38.5z M46.2,38.5
		l-11,7.3l-9.5-6.4l20.5-13.7V38.5L46.2,38.5z M31.9,48l-7.7,5.1V42.9L31.9,48z M35.2,50.2l11,7.3v12.7L25.6,56.6L35.2,50.2
		L35.2,50.2z M49.8,57.5l11-7.3l9.5,6.4L49.8,70.2V57.5L49.8,57.5z M64.1,48l7.7-5.1v10.3L64.1,48z"/>
</g>
</svg>
